# xmcd CD database file
#
# Track frame offsets:
#	150
#	17625
#	37807
#	55120
#	70395
#	84652
#	99872
#	113597
#	129750
#	146397
#	164870
#	184007
#	196525
#	213052
#
# Disc length: 3106 seconds
#
# Revision: 0
# Processed by: cddbd v1.5.1PL0 Copyright (c) Steve Scherf et al.
# Submitted via: CDex 1.51
#
DISCID=ab0c200e
DTITLE=Future Orchestra - Big Bossa
DYEAR=1993
DGENRE=Jazz
TTITLE0=IN THE MOOD
TTITLE1=POLKA DOTS AND MOONBEAMS
TTITLE2=CUTE
TTITLE3=BARBARA
TTITLE4=NEW YORK, NEW YORK
TTITLE5=EARLY MORNING
TTITLE6=PETER GUNN
TTITLE7=BIG BOSSA
TTITLE8=HONESTY
TTITLE9=SPICE OF LIFE
TTITLE10=SOPHISTICATED LADY
TTITLE11=DOWN BASIE STREET
TTITLE12=GEORGIA ON MY MIND
TTITLE13=CHAMELEON
EXTD=YEAR: 1993
EXTT0=
EXTT1=
EXTT2=
EXTT3=
EXTT4=
EXTT5=
EXTT6=
EXTT7=
EXTT8=
EXTT9=
EXTT10=
EXTT11=
EXTT12=
EXTT13=
PLAYORDER=
